PathFileType	4	(X/Y/Z) abd_2kg_3.trc																										
DataRate	CameraRate	NumFrames	NumMarkers	Units	OrigDataRate	OrigDataStartFrame	OrigNumFrames																					
100	100	34	9	mm	100	704	938																					
Frame#	Time	gu			centelbow			EpL			centpxt8			centijc7			ij			ts			aa			ai		
		X1	Y1	Z1	X2	Y2	Z2	X3	Y3	Z3	X4	Y4	Z4	X5	Y5	Z5	X6	Y6	Z6	X7	Y7	Z7	X8	Y8	Z8	X9	Y9	Z9  
703	7.03	-98.569	-5.856	160.339	-135.036	-248.3	189.919	-134.224	-240.539	221.2	-46.816	-153.158	-8.669	-46.816	31.938	-8.669	0	0	0	-129.917	29.478	36.648	-128.383	29.944	155.905	-145.987	-82.741	42.506
704	7.04	-98.268	-5.764	160.343	-135.123	-248.138	190.021	-134.284	-240.367	221.299	-46.816	-153.158	-8.669	-46.816	31.938	-8.669	0	0	0	-129.869	29.562	36.563	-128.352	30.054	155.82	-145.943	-82.655	42.443
705	7.05	-98.189	-5.596	160.328	-135.332	-247.91	190.133	-134.48	-240.125	221.407	-46.816	-153.158	-8.669	-46.816	31.938	-8.669	0	0	0	-129.796	29.563	36.53	-128.303	30.095	155.787	-145.875	-82.652	42.445
706	7.06	-98.314	-5.524	160.285	-135.706	-247.788	190.185	-134.852	-239.991	221.456	-46.816	-153.158	-8.669	-46.816	31.938	-8.669	0	0	0	-129.866	29.585	36.462	-128.397	30.159	155.719	-145.956	-82.626	42.413
707	7.07	-98.416	-5.612	160.197	-136.041	-247.835	190.146	-135.19	-240.03	221.415	-46.816	-153.158	-8.669	-46.816	31.938	-8.669	0	0	0	-130.01	29.661	36.315	-128.56	30.266	155.573	-146.114	-82.547	42.292
708	7.08	-98.421	-5.727	160.065	-136.233	-247.915	190.053	-135.389	-240.104	221.321	-46.816	-153.158	-8.669	-46.816	31.938	-8.669	0	0	0	-130.107	29.724	36.159	-128.669	30.355	155.416	-146.217	-82.482	42.159
709	7.09	-98.511	-5.757	159.928	-136.452	-247.919	189.963	-135.615	-240.1	221.23	-46.816	-153.158	-8.669	-46.816	31.938	-8.669	0	0	0	-130.209	29.74	36.056	-128.782	30.408	155.314	-146.317	-82.464	42.091
710	7.1	-98.754	-5.796	159.83	-136.802	-247.936	189.913	-135.974	-240.11	221.178	-46.816	-153.158	-8.669	-46.816	31.938	-8.669	0	0	0	-130.379	29.713	36.012	-128.974	30.427	155.27	-146.492	-82.488	42.086
711	7.11	-98.988	-5.929	159.775	-137.154	-248.046	189.892	-136.334	-240.213	221.156	-46.816	-153.158	-8.669	-46.816	31.938	-8.669	0	0	0	-130.548	29.663	36.03	-129.178	30.411	155.287	-146.677	-82.535	42.132
712	7.12	-99.106	-6.081	159.741	-137.394	-248.174	189.891	-136.582	-240.336	221.153	-46.816	-153.158	-8.669	-46.816	31.938	-8.669	0	0	0	-130.63	29.607	36.101	-129.303	30.373	155.359	-146.776	-82.588	42.214
713	7.13	-99.17	-6.192	159.735	-137.575	-248.263	189.922	-136.771	-240.418	221.183	-46.816	-153.158	-8.669	-46.816	31.938	-8.669	0	0	0	-130.657	29.55	36.183	-129.369	30.322	155.442	-146.817	-82.642	42.296
714	7.14	-99.245	-6.268	159.745	-137.76	-248.318	189.956	-136.961	-240.47	221.216	-46.816	-153.158	-8.669	-46.816	31.938	-8.669	0	0	0	-130.719	29.523	36.247	-129.454	30.298	155.506	-146.889	-82.668	42.36
715	7.15	-99.306	-6.279	159.701	-137.906	-248.315	189.913	-137.105	-240.467	221.173	-46.816	-153.158	-8.669	-46.816	31.938	-8.669	0	0	0	-130.823	29.573	36.269	-129.552	30.354	155.527	-146.993	-82.617	42.387
716	7.16	-99.303	-6.231	159.61	-137.952	-248.26	189.814	-137.148	-240.413	221.074	-46.816	-153.158	-8.669	-46.816	31.938	-8.669	0	0	0	-130.903	29.654	36.22	-129.607	30.445	155.478	-147.065	-82.537	42.352
717	7.17	-99.251	-6.203	159.56	-137.942	-248.226	189.763	-137.14	-240.379	221.023	-46.816	-153.158	-8.669	-46.816	31.938	-8.669	0	0	0	-130.954	29.654	36.121	-129.637	30.457	155.379	-147.111	-82.537	42.268
718	7.18	-99.198	-6.262	159.561	-137.949	-248.274	189.772	-137.154	-240.425	221.032	-46.816	-153.158	-8.669	-46.816	31.938	-8.669	0	0	0	-131.007	29.56	36.026	-129.679	30.371	155.283	-147.167	-82.63	42.181
719	7.19	-99.132	-6.405	159.537	-137.958	-248.403	189.758	-137.167	-240.552	221.018	-46.816	-153.158	-8.669	-46.816	31.938	-8.669	0	0	0	-130.995	29.466	35.977	-129.657	30.278	155.234	-147.155	-82.724	42.134
720	7.2	-99.043	-6.542	159.458	-137.937	-248.529	189.686	-137.147	-240.676	220.946	-46.816	-153.158	-8.669	-46.816	31.938	-8.669	0	0	0	-130.854	29.432	36.023	-129.504	30.239	155.281	-147.004	-82.76	42.178
721	7.21	-98.988	-6.588	159.391	-137.928	-248.569	189.612	-137.136	-240.717	220.871	-46.816	-153.158	-8.669	-46.816	31.938	-8.669	0	0	0	-130.699	29.434	36.16	-129.33	30.239	155.417	-146.836	-82.759	42.315
722	7.22	-98.999	-6.583	159.417	-137.968	-248.563	189.605	-137.176	-240.716	220.865	-46.816	-153.158	-8.669	-46.816	31.938	-8.669	0	0	0	-130.683	29.43	36.289	-129.277	30.243	155.546	-146.814	-82.764	42.456
723	7.23	-99.035	-6.621	159.495	-138.036	-248.6	189.652	-137.244	-240.756	220.914	-46.816	-153.158	-8.669	-46.816	31.938	-8.669	0	0	0	-130.785	29.401	36.325	-129.313	30.232	155.58	-146.913	-82.791	42.518
724	7.24	-99.065	-6.673	159.476	-138.092	-248.646	189.65	-137.296	-240.801	220.911	-46.816	-153.158	-8.669	-46.816	31.938	-8.669	0	0	0	-130.882	29.403	36.248	-129.31	30.252	155.503	-146.994	-82.791	42.473
725	7.25	-99.06	-6.638	159.288	-138.084	-248.602	189.534	-137.276	-240.749	220.793	-46.816	-153.158	-8.669	-46.816	31.938	-8.669	0	0	0	-130.919	29.514	36.073	-129.218	30.383	155.325	-146.988	-82.684	42.332
726	7.26	-99	-6.512	159.029	-137.982	-248.472	189.356	-137.157	-240.612	220.612	-46.816	-153.158	-8.669	-46.816	31.938	-8.669	0	0	0	-130.915	29.719	35.86	-129.077	30.604	155.111	-146.912	-82.487	42.152
727	7.27	-98.953	-6.422	158.865	-137.881	-248.385	189.239	-137.045	-240.521	220.494	-46.816	-153.158	-8.669	-46.816	31.938	-8.669	0	0	0	-130.921	29.866	35.711	-128.971	30.758	154.959	-146.839	-82.35	42.024
728	7.28	-98.97	-6.466	158.898	-137.861	-248.434	189.289	-137.024	-240.567	220.544	-46.816	-153.158	-8.669	-46.816	31.938	-8.669	0	0	0	-130.974	29.814	35.667	-128.962	30.712	154.914	-146.844	-82.408	41.992
729	7.29	-98.956	-6.575	159.07	-137.822	-248.546	189.464	-136.996	-240.678	220.718	-46.816	-153.158	-8.669	-46.816	31.938	-8.669	0	0	0	-131.082	29.652	35.677	-129.056	30.556	154.924	-146.936	-82.572	42.01
730	7.3	-98.909	-6.612	159.246	-137.754	-248.587	189.635	-136.941	-240.717	220.889	-46.816	-153.158	-8.669	-46.816	31.938	-8.669	0	0	0	-131.251	29.559	35.719	-129.239	30.473	154.967	-147.1	-82.665	42.059
731	7.31	-98.963	-6.57	159.365	-137.806	-248.546	189.748	-137.002	-240.676	221.002	-46.816	-153.158	-8.669	-46.816	31.938	-8.669	0	0	0	-131.412	29.494	35.862	-129.437	30.42	155.11	-147.258	-82.73	42.209
732	7.32	-99.054	-6.548	159.433	-137.898	-248.524	189.816	-137.097	-240.653	221.071	-46.816	-153.158	-8.669	-46.816	31.938	-8.669	0	0	0	-131.387	29.332	36.127	-129.484	30.268	155.376	-147.232	-82.892	42.473
733	7.33	-98.947	-6.592	159.477	-137.758	-248.572	189.867	-136.959	-240.7	221.121	-46.816	-153.158	-8.669	-46.816	31.938	-8.669	0	0	0	-131.094	29.12	36.461	-129.301	30.065	155.711	-146.925	-83.106	42.801
734	7.34	-98.628	-6.703	159.556	-137.394	-248.689	189.965	-136.599	-240.813	221.218	-46.816	-153.158	-8.669	-46.816	31.938	-8.669	0	0	0	-130.665	28.935	36.816	-128.995	29.895	156.068	-146.467	-83.296	43.153
735	7.35	-98.355	-6.84	159.706	-137.107	-248.824	190.143	-136.314	-240.945	221.395	-46.816	-153.158	-8.669	-46.816	31.938	-8.669	0	0	0	-130.35	28.793	37.091	-128.771	29.771	156.344	-146.121	-83.442	43.433
736	7.36	-98.333	-6.856	159.839	-137.063	-248.839	190.307	-136.263	-240.957	221.559	-46.816	-153.158	-8.669	-46.816	31.938	-8.669	0	0	0	-130.299	28.746	37.159	-128.737	29.74	156.412	-146.034	-83.494	43.513
